<svg xmlns="http://www.w3.org/2000/svg" xmlns:xlink="http://www.w3.org/1999/xlink" width="24" height="24" viewBox="0 0 24 24"><defs><style>.a,.c{fill:#fff;}.b{clip-path:url(#a);}.c{fill-rule:evenodd;}</style><clipPath id="a"><rect class="a" width="24" height="24" transform="translate(1036 12)"/></clipPath></defs><g class="b" transform="translate(-1036 -12)"><path class="c" d="M1048,12a12,12,0,1,0,12,12A12.006,12.006,0,0,0,1048,12Zm7.93,5.531a10.172,10.172,0,0,1,2.31,6.377,24.191,24.191,0,0,0-7.13-.325c-.08-.169-.14-.351-.22-.534-.21-.494-.44-1-.68-1.484A13.794,13.794,0,0,0,1055.93,17.531ZM1048,13.77a10.224,10.224,0,0,1,6.79,2.577,11.6,11.6,0,0,1-5.37,3.7,54.671,54.671,0,0,0-3.83-6A10.476,10.476,0,0,1,1048,13.77Zm-4.36.963a64.317,64.317,0,0,1,3.8,5.922,38.437,38.437,0,0,1-9.47,1.25A10.291,10.291,0,0,1,1043.64,14.733Zm-5.9,9.28V23.7a37.409,37.409,0,0,0,10.53-1.458c.3.573.58,1.158.84,1.744-.13.039-.28.078-.41.117a16.346,16.346,0,0,0-8.33,6.755A10.261,10.261,0,0,1,1037.74,24.013ZM1048,34.256a10.184,10.184,0,0,1-6.29-2.161,14.13,14.13,0,0,1,8.05-6.4c.02-.013.04-.013.06-.026a42.362,42.362,0,0,1,2.19,7.77A10.1,10.1,0,0,1,1048,34.256Zm5.71-1.757a43.633,43.633,0,0,0-1.99-7.3,14.965,14.965,0,0,1,6.38.443A10.136,10.136,0,0,1,1053.71,32.5Z"/></g></svg>