<svg width="200" height="200" viewBox="0 0 200 200" fill="none" xmlns="http://www.w3.org/2000/svg">
<path d="M35.4167 1.61203e-05H164.583C169.236 -0.00448106 173.843 0.932018 178.142 2.75592C182.441 4.57981 186.347 7.25531 189.636 10.6293C192.926 14.0032 195.535 18.0094 197.313 22.4186C199.091 26.8277 200.004 31.5533 200 36.3248V163.675C200.004 168.447 199.091 173.172 197.313 177.581C195.535 181.991 192.926 185.997 189.636 189.371C186.347 192.745 182.441 195.42 178.142 197.244C173.843 199.068 169.236 200.004 164.583 200H35.4167C30.7645 200.004 26.157 199.068 21.8581 197.244C17.5592 195.42 13.6532 192.745 10.3635 189.371C7.07392 185.997 4.46532 181.991 2.68702 177.581C0.908717 173.172 -0.00436903 168.447 1.57173e-05 163.675V36.3248C-0.00436903 31.5533 0.908717 26.8277 2.68702 22.4186C4.46532 18.0094 7.07392 14.0032 10.3635 10.6293C13.6532 7.25531 17.5592 4.57981 21.8581 2.75592C26.157 0.932018 30.7645 -0.00448106 35.4167 1.61203e-05Z" fill="#F0F0F0"/>
<path d="M172.172 93.319L106.677 27.829C102.908 24.057 96.791 24.057 93.0179 27.829L79.4185 41.4303L96.6689 58.6813C100.679 57.3273 105.276 58.2351 108.471 61.4311C111.683 64.6469 112.584 69.283 111.196 73.3068L127.822 89.9338C131.845 88.5476 136.486 89.4432 139.698 92.6609C144.188 97.1503 144.188 104.425 139.698 108.915C135.207 113.407 127.932 113.407 123.439 108.915C120.062 105.536 119.227 100.575 120.937 96.4145L105.431 80.908L105.43 121.713C106.525 122.255 107.558 122.978 108.47 123.887C112.959 128.376 112.959 135.649 108.47 140.145C103.98 144.634 96.7023 144.634 92.2166 140.145C87.7267 135.649 87.7267 128.376 92.2166 123.887C93.3261 122.779 94.6101 121.941 95.98 121.379V80.1945C94.6094 79.6349 93.327 78.8028 92.2158 77.6862C88.8149 74.2879 87.9959 69.2964 89.74 65.12L72.7345 48.1112L27.8298 93.0164C24.0567 96.7913 24.0567 102.909 27.8298 106.681L93.3212 172.171C97.0918 175.943 103.207 175.943 106.982 172.171L172.171 106.99C175.943 103.216 175.943 97.0973 172.171 93.3245" fill="#F05133"/>
</svg>
