<svg xmlns="http://www.w3.org/2000/svg" width="30" height="30" viewBox="0 0 30 30"><defs><style>.a{fill:#190b0b;opacity:0;}.b{fill:#fff;fill-rule:evenodd;}</style></defs><rect class="a" width="30" height="30"/><path class="b" d="M1176,12.6a11.972,11.972,0,0,0-7.73,2.829,11.844,11.844,0,0,0,3.95,20.279c.6.11.82-.257.82-.569s-.01-1.217-.02-2.207c-3.31.717-4.01-1.4-4.01-1.4a3.158,3.158,0,0,0-1.33-1.736c-1.08-.734.08-.721.08-.721a2.507,2.507,0,0,1,1.83,1.223,2.542,2.542,0,0,0,3.47.982,2.541,2.541,0,0,1,.76-1.587c-2.65-.3-5.43-1.316-5.43-5.859a4.577,4.577,0,0,1,1.22-3.183,4.264,4.264,0,0,1,.12-3.142s1-.318,3.28,1.215a11.377,11.377,0,0,1,5.97,0c2.28-1.533,3.28-1.215,3.28-1.215a4.268,4.268,0,0,1,.12,3.142,4.638,4.638,0,0,1,1.23,3.187c0,4.553-2.79,5.557-5.45,5.849a2.821,2.821,0,0,1,.81,2.2c0,1.586-.01,2.863-.01,3.253,0,.316.21.685.82.569A11.856,11.856,0,0,0,1176,12.6Z" transform="translate(-1161 -9.165)"/></svg>