<svg width="200" height="200" viewBox="0 0 200 200" fill="none" xmlns="http://www.w3.org/2000/svg">
<path d="M165 0H35C15.67 0 0 15.67 0 35V165C0 184.33 15.67 200 35 200H165C184.33 200 200 184.33 200 165V35C200 15.67 184.33 0 165 0Z" fill="#2E0501"/>
<path d="M101.661 122.119H71.5676L64.0443 144.956C63.9579 145.652 63.4823 146 62.6175 146H48.9978C48.133 146 47.8304 145.565 48.0898 144.695L75.0698 67.1801C75.6751 65.8752 76.0643 63.4392 76.2372 59.8723C76.2372 59.3504 76.5399 59.0894 77.1452 59.0894H95.8237C96.2561 59.0894 96.602 59.3069 96.8614 59.7418L126.954 144.826C127.214 145.609 126.954 146 126.176 146H110.87C110.265 146 109.833 145.696 109.573 145.087L101.661 122.119ZM74.9401 109.461H98.2882C97.9423 108.243 96.1264 102.719 92.8403 92.8879C89.6408 82.9702 87.5222 76.1844 86.4845 72.5305H86.3547C85.3171 76.9674 81.5122 89.2775 74.9401 109.461Z" fill="#F2A032"/>
<path d="M135.008 144.826V83.4922C135.008 82.7962 135.354 82.4482 136.045 82.4482H150.443C151.135 82.4482 151.481 82.7962 151.481 83.4922V144.956C151.481 145.652 151.135 146 150.443 146H136.175C135.397 146 135.008 145.609 135.008 144.826ZM149.665 69.2681C148.109 70.834 145.99 71.617 143.309 71.617C140.629 71.617 138.51 70.834 136.953 69.2681C135.397 67.7021 134.619 65.5707 134.619 62.8738C134.619 60.2638 135.44 58.1324 137.083 56.4794C138.726 54.8265 140.845 54 143.439 54C146.033 54 148.109 54.8265 149.665 56.4794C151.222 58.1324 152 60.2638 152 62.8738C152 65.5707 151.222 67.7021 149.665 69.2681Z" fill="#F2A032"/>
</svg>
