<svg xmlns="http://www.w3.org/2000/svg" xmlns:xlink="http://www.w3.org/1999/xlink" width="24" height="24" viewBox="0 0 24 24"><defs><style>.a{fill:#fff;}.b{clip-path:url(#a);}</style><clipPath id="a"><rect class="a" width="24" height="24" transform="translate(0.42)"/></clipPath></defs><g class="b" transform="translate(-0.42)"><path class="a" d="M152,14.163c3.206,0,3.582.014,4.85.071a6.549,6.549,0,0,1,2.229.415,3.732,3.732,0,0,1,1.382.9,3.662,3.662,0,0,1,.9,1.382,6.682,6.682,0,0,1,.415,2.229c.057,1.267.071,1.644.071,4.85s-.014,3.582-.071,4.849a6.554,6.554,0,0,1-.415,2.229,3.724,3.724,0,0,1-.9,1.382,3.676,3.676,0,0,1-1.382.9,6.676,6.676,0,0,1-2.229.414c-1.268.057-1.644.072-4.85.072s-3.582-.014-4.85-.072a6.552,6.552,0,0,1-2.229-.414,3.723,3.723,0,0,1-1.381-.9,3.654,3.654,0,0,1-.9-1.382,6.683,6.683,0,0,1-.415-2.229c-.057-1.267-.071-1.643-.071-4.849s.014-3.582.071-4.85a6.553,6.553,0,0,1,.415-2.229,3.713,3.713,0,0,1,.9-1.382,3.662,3.662,0,0,1,1.381-.9,6.672,6.672,0,0,1,2.229-.415C148.418,14.172,148.8,14.163,152,14.163ZM152,12c-3.258,0-3.668.014-4.95.071a8.794,8.794,0,0,0-2.91.557,5.85,5.85,0,0,0-2.125,1.386,5.942,5.942,0,0,0-1.386,2.125,8.8,8.8,0,0,0-.558,2.916C140.014,20.332,140,20.742,140,24s.014,3.668.071,4.95a8.856,8.856,0,0,0,.558,2.915,5.85,5.85,0,0,0,1.386,2.125,5.954,5.954,0,0,0,2.125,1.386,8.8,8.8,0,0,0,2.915.557c1.282.057,1.687.071,4.95.071s3.668-.014,4.949-.071a8.856,8.856,0,0,0,2.916-.557,5.837,5.837,0,0,0,2.124-1.386,5.959,5.959,0,0,0,1.387-2.125,8.808,8.808,0,0,0,.557-2.915c.057-1.281.072-1.686.072-4.95s-.015-3.668-.072-4.95a8.859,8.859,0,0,0-.557-2.915,5.853,5.853,0,0,0-1.387-2.125,5.942,5.942,0,0,0-2.124-1.386,8.8,8.8,0,0,0-2.916-.557C155.668,12.014,155.258,12,152,12Z" transform="translate(-140.202 -12)"/><path class="a" d="M152,14.163c3.206,0,3.582.014,4.85.071a6.549,6.549,0,0,1,2.229.415,3.732,3.732,0,0,1,1.382.9,3.662,3.662,0,0,1,.9,1.382,6.682,6.682,0,0,1,.415,2.229c.057,1.267.071,1.644.071,4.85s-.014,3.582-.071,4.849a6.554,6.554,0,0,1-.415,2.229,3.724,3.724,0,0,1-.9,1.382,3.676,3.676,0,0,1-1.382.9,6.676,6.676,0,0,1-2.229.414c-1.268.057-1.644.072-4.85.072s-3.582-.014-4.85-.072a6.552,6.552,0,0,1-2.229-.414,3.723,3.723,0,0,1-1.381-.9,3.654,3.654,0,0,1-.9-1.382,6.683,6.683,0,0,1-.415-2.229c-.057-1.267-.071-1.643-.071-4.849s.014-3.582.071-4.85a6.553,6.553,0,0,1,.415-2.229,3.713,3.713,0,0,1,.9-1.382,3.662,3.662,0,0,1,1.381-.9,6.672,6.672,0,0,1,2.229-.415C148.418,14.172,148.8,14.163,152,14.163Z" transform="translate(-140.202 -12)"/><path d="M152,17.84A6.164,6.164,0,1,0,158.164,24,6.165,6.165,0,0,0,152,17.84ZM152,28a4,4,0,1,1,4-4A4,4,0,0,1,152,28Z" transform="translate(-140.202 -12)"/><path d="M158.407,19.031a1.439,1.439,0,1,0-1.438-1.439A1.439,1.439,0,0,0,158.407,19.031Z" transform="translate(-140.202 -12)"/></g></svg>