<svg width="200" height="200" viewBox="0 0 200 200" fill="none" xmlns="http://www.w3.org/2000/svg">
<g clip-path="url(#clip0_1_405)">
<path d="M35.4167 1.61203e-05H164.583C169.236 -0.00448106 173.843 0.932018 178.142 2.75592C182.441 4.57981 186.347 7.25531 189.636 10.6293C192.926 14.0032 195.535 18.0094 197.313 22.4186C199.091 26.8277 200.004 31.5533 200 36.3248V163.675C200.004 168.447 199.091 173.172 197.313 177.581C195.535 181.991 192.926 185.997 189.636 189.371C186.347 192.745 182.441 195.42 178.142 197.244C173.843 199.068 169.236 200.004 164.583 200H35.4167C30.7645 200.004 26.157 199.068 21.8581 197.244C17.5592 195.42 13.6532 192.745 10.3635 189.371C7.07392 185.997 4.46532 181.991 2.68702 177.581C0.908717 173.172 -0.00436903 168.447 1.57173e-05 163.675V36.3248C-0.00436903 31.5533 0.908717 26.8277 2.68702 22.4186C4.46532 18.0094 7.07392 14.0032 10.3635 10.6293C13.6532 7.25531 17.5592 4.57981 21.8581 2.75592C26.157 0.932018 30.7645 -0.00448106 35.4167 1.61203e-05Z" fill="#F7DF1E"/>
<path d="M134.689 156.492C138.717 163.07 143.959 167.905 153.229 167.905C161.016 167.905 165.99 164.013 165.99 158.635C165.99 152.19 160.879 149.908 152.308 146.159L147.61 144.143C134.048 138.365 125.038 131.127 125.038 115.825C125.038 101.73 135.778 91 152.562 91C164.511 91 173.102 95.1587 179.292 106.048L164.657 115.444C161.435 109.667 157.959 107.39 152.562 107.39C147.057 107.39 143.568 110.883 143.568 115.444C143.568 121.083 147.06 123.365 155.124 126.857L159.822 128.87C175.79 135.717 184.806 142.698 184.806 158.394C184.806 175.314 171.514 184.584 153.663 184.584C136.21 184.584 124.933 176.267 119.416 165.365L134.689 156.492ZM68.2984 158.121C71.2508 163.359 73.9365 167.787 80.3937 167.787C86.5683 167.787 90.4635 165.371 90.4635 155.978V92.073H109.257V156.232C109.257 175.692 97.8476 184.549 81.1937 184.549C66.146 184.549 57.4317 176.762 53 167.383L68.2984 158.121Z" fill="black"/>
</g>
<defs>
<clipPath id="clip0_1_405">
<rect width="200" height="200" fill="white"/>
</clipPath>
</defs>
</svg>
