<svg xmlns="http://www.w3.org/2000/svg" width="30" height="30" viewBox="0 0 30 30"><defs><style>.a{fill:#190b0b;opacity:0;}.b{fill:#fff;}</style></defs><g transform="translate(0.242)"><rect class="a" width="30" height="30" transform="translate(-0.242)"/><path class="b" d="M226.228,12H205.772A1.772,1.772,0,0,0,204,13.772V34.228A1.772,1.772,0,0,0,205.772,36h20.456A1.772,1.772,0,0,0,228,34.228V13.772A1.772,1.772,0,0,0,226.228,12ZM211.153,32.445h-3.608V20.983h3.608ZM209.347,19.4a2.071,2.071,0,1,1,2.083-2.07,2.042,2.042,0,0,1-2.083,2.07Zm15.106,13.06h-3.606V26.193c0-1.847-.785-2.417-1.8-2.417a2.2,2.2,0,0,0-2.12,2.463v6.215H213.32V20.992h3.47V22.58h.047a3.936,3.936,0,0,1,3.43-1.91c2.013,0,4.188,1.195,4.188,4.695Z" transform="translate(-200.798 -9)"/></g></svg>