<svg width="55" height="55" viewBox="0 0 55 55" fill="none" xmlns="http://www.w3.org/2000/svg">
<rect width="48" height="48" rx="4" fill="white"/>
<g clip-path="url(#clip0_2107_9)">
<path d="M44.4567 0H3.54333C2.60358 0 1.70232 0.373315 1.03782 1.03782C0.373315 1.70232 0 2.60358 0 3.54333V44.4567C0 45.3964 0.373315 46.2977 1.03782 46.9622C1.70232 47.6267 2.60358 48 3.54333 48H44.4567C45.3964 48 46.2977 47.6267 46.9622 46.9622C47.6267 46.2977 48 45.3964 48 44.4567V3.54333C48 2.60358 47.6267 1.70232 46.9622 1.03782C46.2977 0.373315 45.3964 0 44.4567 0ZM14.3067 40.89H7.09V17.9667H14.3067V40.89ZM10.6933 14.79C9.87473 14.7854 9.07583 14.5384 8.39747 14.0802C7.71911 13.622 7.19168 12.9731 6.88175 12.2154C6.57183 11.4577 6.4933 10.6252 6.65606 9.82291C6.81883 9.02063 7.2156 8.28455 7.79631 7.70756C8.37702 7.13057 9.11563 6.73853 9.91893 6.58092C10.7222 6.42331 11.5542 6.50719 12.3099 6.82197C13.0656 7.13675 13.7111 7.66833 14.1649 8.34962C14.6188 9.03092 14.8606 9.83138 14.86 10.65C14.8677 11.1981 14.765 11.7421 14.558 12.2496C14.351 12.7571 14.044 13.2178 13.6551 13.6041C13.2663 13.9905 12.8037 14.2946 12.2948 14.4983C11.786 14.702 11.2413 14.8012 10.6933 14.79ZM40.9067 40.91H33.6933V28.3867C33.6933 24.6933 32.1233 23.5533 30.0967 23.5533C27.9567 23.5533 25.8567 25.1667 25.8567 28.48V40.91H18.64V17.9833H25.58V21.16H25.6733C26.37 19.75 28.81 17.34 32.5333 17.34C36.56 17.34 40.91 19.73 40.91 26.73L40.9067 40.91Z" fill="#0A66C2"/>
</g>
<circle cx="41.5" cy="41.5" r="10.5" fill="white"/>
<path d="M55 42.6094C55 43.5184 54.7816 44.3613 54.3449 45.1332C53.9082 45.9051 53.3242 46.5094 52.5879 46.9309C52.6082 47.068 52.6184 47.2813 52.6184 47.5707C52.6184 48.9469 52.1562 50.1148 51.2422 51.0797C50.323 52.0496 49.216 52.532 47.9211 52.532C47.3422 52.532 46.7887 52.4254 46.2656 52.2121C45.8594 53.0449 45.2754 53.7152 44.5086 54.2281C43.7469 54.7461 42.909 55 42 55C41.0707 55 40.2277 54.7512 39.4762 54.2434C38.7195 53.7406 38.1406 53.0652 37.7344 52.2121C37.2113 52.4254 36.6629 52.532 36.0789 52.532C34.784 52.532 33.6719 52.0496 32.7426 51.0797C31.8133 50.1148 31.3512 48.9418 31.3512 47.5707C31.3512 47.4184 31.3715 47.2051 31.407 46.9309C30.6707 46.5043 30.0867 45.9051 29.65 45.1332C29.2184 44.3613 29 43.5184 29 42.6094C29 41.6445 29.2438 40.7559 29.7262 39.9535C30.2086 39.1512 30.8586 38.557 31.6711 38.1711C31.4578 37.5922 31.3512 37.0082 31.3512 36.4293C31.3512 35.0582 31.8133 33.8852 32.7426 32.9203C33.6719 31.9555 34.784 31.468 36.0789 31.468C36.6578 31.468 37.2113 31.5746 37.7344 31.7879C38.1406 30.9551 38.7246 30.2848 39.4914 29.7719C40.2531 29.259 41.091 29 42 29C42.909 29 43.7469 29.259 44.5086 29.7668C45.2703 30.2797 45.8594 30.95 46.2656 31.7828C46.7887 31.5695 47.3371 31.4629 47.9211 31.4629C49.216 31.4629 50.323 31.9453 51.2422 32.9152C52.1613 33.8852 52.6184 35.0531 52.6184 36.4242C52.6184 37.0641 52.5219 37.643 52.3289 38.166C53.1414 38.552 53.7914 39.1461 54.2738 39.9484C54.7563 40.7559 55 41.6445 55 42.6094ZM41.4465 46.5246L46.8141 38.4859C46.9512 38.2727 46.9918 38.0391 46.9461 37.7902C46.8953 37.5414 46.7684 37.3434 46.5551 37.2113C46.3418 37.0742 46.1082 37.0285 45.8594 37.0641C45.6055 37.1047 45.4023 37.2266 45.25 37.4398L40.5223 44.5492L38.3438 42.3758C38.1508 42.1828 37.9273 42.0914 37.6785 42.1016C37.4246 42.1117 37.2063 42.2031 37.0133 42.3758C36.8406 42.5484 36.7543 42.7668 36.7543 43.0309C36.7543 43.2898 36.8406 43.5082 37.0133 43.6859L40.0043 46.677L40.1516 46.7937C40.3242 46.9105 40.502 46.9664 40.6746 46.9664C41.0148 46.9613 41.2738 46.8191 41.4465 46.5246Z" fill="url(#paint0_linear_2107_9)"/>
<defs>
<linearGradient id="paint0_linear_2107_9" x1="42" y1="29" x2="42" y2="55" gradientUnits="userSpaceOnUse">
<stop stop-color="#FCFF77"/>
<stop offset="1" stop-color="#F2DA00"/>
</linearGradient>
<clipPath id="clip0_2107_9">
<rect width="48" height="48" fill="white"/>
</clipPath>
</defs>
</svg>
