<svg xmlns="http://www.w3.org/2000/svg" width="30" height="30" viewBox="0 0 30 30"><defs><style>.a{fill:#190b0b;opacity:0;}.b{fill:#fff;fill-rule:evenodd;}</style></defs><g transform="translate(-0.243)"><rect class="a" width="30" height="30" transform="translate(0.243)"/><g transform="translate(2.88 2.828)"><path class="b" d="M739.52,24.273a13.775,13.775,0,0,0-.218-2.455H728V26.46h6.458a5.519,5.519,0,0,1-2.394,3.622v3.011h3.878A11.7,11.7,0,0,0,739.52,24.273Z" transform="translate(-716 -12)"/><path class="b" d="M728,36a11.458,11.458,0,0,0,7.942-2.907l-3.878-3.011a7.24,7.24,0,0,1-10.779-3.8h-4.009v3.109A12,12,0,0,0,728,36Z" transform="translate(-716 -12)"/><path class="b" d="M721.285,26.28a7.1,7.1,0,0,1,0-4.56V18.611h-4.009a12.018,12.018,0,0,0,0,10.778Z" transform="translate(-716 -12)"/><path class="b" d="M728,16.773a6.48,6.48,0,0,1,4.587,1.795l3.442-3.442A11.531,11.531,0,0,0,728,12a12,12,0,0,0-10.724,6.611l4.009,3.109A7.153,7.153,0,0,1,728,16.773Z" transform="translate(-716 -12)"/></g></g></svg>