<svg xmlns="http://www.w3.org/2000/svg" width="30" height="30" viewBox="0 0 30 30"><defs><style>.a{fill:#190b0b;opacity:0;}.b{fill:#fff;}</style></defs><g transform="translate(-0.152)"><rect class="a" width="30" height="30" transform="translate(0.152)"/><g transform="translate(3.32 8)"><path class="b" d="M473.537,24.228a6.769,6.769,0,1,1-6.768-6.828A6.8,6.8,0,0,1,473.537,24.228Z" transform="translate(-460 -17.4)"/><path class="b" d="M480.963,24.228c0,3.549-1.515,6.428-3.385,6.428s-3.384-2.878-3.384-6.428,1.515-6.428,3.384-6.428,3.385,2.878,3.385,6.428" transform="translate(-460 -17.4)"/><path class="b" d="M484,24.228c0,3.179-.533,5.758-1.19,5.758s-1.19-2.578-1.19-5.758.532-5.758,1.19-5.758S484,21.048,484,24.228Z" transform="translate(-460 -17.4)"/></g></g></svg>