<svg width="200" height="200" viewBox="0 0 200 200" fill="none" xmlns="http://www.w3.org/2000/svg">
<path d="M165 0H35C15.67 0 0 15.67 0 35V165C0 184.33 15.67 200 35 200H165C184.33 200 200 184.33 200 165V35C200 15.67 184.33 0 165 0Z" fill="#001E36"/>
<path d="M45 141.794V57.1681C45 56.5624 45.3033 56.2596 45.91 56.2596C52.4963 56.0865 60.8592 56 70.9986 56C82.958 56 91.7109 58.6824 97.2573 64.0472C102.89 69.412 105.707 76.0315 105.707 83.9056C105.707 93.6834 102.24 100.952 95.3074 105.711C88.3744 110.47 79.6649 112.85 69.1787 112.85H61.5091V141.664C61.5091 142.356 61.1625 142.702 60.4692 142.702H46.0399C45.3466 142.702 45 142.399 45 141.794ZM61.5091 68.4602V100.389C62.7224 100.562 65.5389 100.649 69.9587 100.649C75.7651 100.649 80.4448 99.3943 83.998 96.885C87.6378 94.2891 89.4577 90.0924 89.4577 84.295C89.4577 79.1898 87.8544 75.2527 84.6479 72.4838C81.5281 69.7149 76.9783 68.3304 70.9986 68.3304C69.5254 68.3304 68.0521 68.3737 66.5789 68.4602C65.1923 68.4602 64.0223 68.4602 63.0691 68.4602C62.2024 68.4602 61.6825 68.4602 61.5091 68.4602Z" fill="#31A8FE"/>
<path d="M151.06 94.4189C146.207 91.3904 141.137 89.8761 135.851 89.8761C132.818 89.8761 130.565 90.4385 129.091 91.5634C127.705 92.6883 127.012 94.0295 127.012 95.587C127.012 97.1445 127.618 98.529 128.831 99.7404C130.045 100.865 132.601 102.206 136.501 103.764C143.694 106.533 148.72 109.475 151.58 112.59C154.527 115.618 156 119.556 156 124.401C156 130.285 153.747 135.044 149.24 138.678C144.821 142.226 138.798 144 131.171 144C123.545 144 117.305 142.616 112.452 139.847C111.932 139.674 111.672 139.241 111.672 138.549V126.478C111.672 126.132 111.759 125.915 111.932 125.829C112.192 125.656 112.409 125.656 112.582 125.829C118.215 129.982 124.238 132.059 130.651 132.059C133.685 132.059 135.981 131.54 137.541 130.501C139.188 129.377 140.011 127.949 140.011 126.218C140.011 124.401 139.361 122.887 138.061 121.676C136.761 120.378 134.204 118.993 130.391 117.522C123.458 114.84 118.605 111.984 115.832 108.956C113.146 105.841 111.802 101.947 111.802 97.2743C111.802 91.9095 113.839 87.41 117.912 83.7758C121.985 80.1416 127.791 78.3245 135.331 78.3245C142.351 78.3245 147.767 79.2763 151.58 81.1799C152.014 81.4395 152.23 82.002 152.23 82.8673V93.6401C152.23 94.6785 151.84 94.9381 151.06 94.4189Z" fill="#31A8FE"/>
</svg>
