<svg width="26" height="26" viewBox="0 0 26 26" fill="none" xmlns="http://www.w3.org/2000/svg">
<circle cx="12.5" cy="12.5" r="10.5" fill="white"/>
<path d="M26 13.6094C26 14.5184 25.7816 15.3613 25.3449 16.1332C24.9082 16.9051 24.3242 17.5094 23.5879 17.9309C23.6082 18.068 23.6184 18.2813 23.6184 18.5707C23.6184 19.9469 23.1562 21.1148 22.2422 22.0797C21.323 23.0496 20.216 23.532 18.9211 23.532C18.3422 23.532 17.7887 23.4254 17.2656 23.2121C16.8594 24.0449 16.2754 24.7152 15.5086 25.2281C14.7469 25.7461 13.909 26 13 26C12.0707 26 11.2277 25.7512 10.4762 25.2434C9.71953 24.7406 9.14062 24.0652 8.73438 23.2121C8.21133 23.4254 7.66289 23.532 7.07891 23.532C5.78398 23.532 4.67187 23.0496 3.74258 22.0797C2.81328 21.1148 2.35117 19.9418 2.35117 18.5707C2.35117 18.4184 2.37148 18.2051 2.40703 17.9309C1.6707 17.5043 1.08672 16.9051 0.65 16.1332C0.218359 15.3613 0 14.5184 0 13.6094C0 12.6445 0.24375 11.7559 0.726172 10.9535C1.20859 10.1512 1.85859 9.55703 2.67109 9.17109C2.45781 8.59219 2.35117 8.0082 2.35117 7.4293C2.35117 6.0582 2.81328 4.88516 3.74258 3.92031C4.67187 2.95547 5.78398 2.46797 7.07891 2.46797C7.65781 2.46797 8.21133 2.57461 8.73438 2.78789C9.14062 1.95508 9.72461 1.28477 10.4914 0.771875C11.2531 0.258984 12.091 0 13 0C13.909 0 14.7469 0.258984 15.5086 0.766797C16.2703 1.27969 16.8594 1.95 17.2656 2.78281C17.7887 2.56953 18.3371 2.46289 18.9211 2.46289C20.216 2.46289 21.323 2.94531 22.2422 3.91523C23.1613 4.88516 23.6184 6.05312 23.6184 7.42422C23.6184 8.06406 23.5219 8.64297 23.3289 9.16602C24.1414 9.55195 24.7914 10.1461 25.2738 10.9484C25.7563 11.7559 26 12.6445 26 13.6094ZM12.4465 17.5246L17.8141 9.48594C17.9512 9.27266 17.9918 9.03906 17.9461 8.79023C17.8953 8.54141 17.7684 8.34336 17.5551 8.21133C17.3418 8.07422 17.1082 8.02852 16.8594 8.06406C16.6055 8.10469 16.4023 8.22656 16.25 8.43984L11.5223 15.5492L9.34375 13.3758C9.15078 13.1828 8.92734 13.0914 8.67852 13.1016C8.42461 13.1117 8.20625 13.2031 8.01328 13.3758C7.84063 13.5484 7.7543 13.7668 7.7543 14.0309C7.7543 14.2898 7.84063 14.5082 8.01328 14.6859L11.0043 17.677L11.1516 17.7937C11.3242 17.9105 11.502 17.9664 11.6746 17.9664C12.0148 17.9613 12.2738 17.8191 12.4465 17.5246Z" fill="url(#paint0_linear_2107_9)"/>
<defs>
<linearGradient id="paint0_linear_2107_9" x1="13" y1="0" x2="13" y2="26" gradientUnits="userSpaceOnUse">
<stop stop-color="#1ED760"/>
<stop offset="1" stop-color="#009736"/>
</linearGradient>
</defs>
</svg>
